<?xml version="1.0" encoding="UTF-8"?>
<svg xmlns="http://www.w3.org/2000/svg" xmlns:xlink="http://www.w3.org/1999/xlink" viewBox="4.5 2.5 356 83">
<path fill-rule="evenodd" fill="#BE955D" fill-opacity="1" d="M 262.695312 29.429688 L 226.515625 29.429688 L 226.515625 59.570312 C 226.515625 60.734375 226.589844 61.871094 226.742188 62.957031 L 235.359375 54.339844 C 237.050781 52.648438 239.808594 52.648438 241.5 54.339844 L 245.238281 58.078125 L 256.003906 47.3125 L 253.402344 44.710938 C 252.921875 44.230469 253.148438 43.394531 253.808594 43.21875 L 269.347656 39.050781 C 270.003906 38.875 270.609375 39.480469 270.433594 40.136719 L 266.265625 55.675781 C 266.089844 56.332031 265.253906 56.5625 264.777344 56.082031 L 262.148438 53.453125 L 248.328125 67.273438 C 246.636719 68.964844 243.882812 68.964844 242.1875 67.273438 L 238.449219 63.535156 L 229.707031 72.277344 C 233.976562 79.933594 242.265625 84.558594 252.371094 84.558594 C 266.898438 84.558594 277.96875 74.550781 277.96875 59.542969 L 277.96875 29.402344 L 262.757812 29.402344 L 262.707031 29.425781 Z M 262.695312 29.429688 "/>
<path fill-rule="evenodd" fill="#0C2122" fill-opacity="1" d="M 5 3.960938 L 54.648438 3.960938 L 54.648438 18.109375 L 20.210938 18.109375 L 20.210938 37.613281 L 49.113281 37.613281 L 49.113281 51.484375 L 20.210938 51.488281 L 20.210938 83.222656 L 5 83.222656 Z M 5 3.960938 "/>
<path fill-rule="evenodd" fill="#0C2122" fill-opacity="1" d="M 66.878906 3 C 64.476562 3 62.40625 3.808594 60.738281 5.453125 C 59.046875 7.09375 58.210938 9.140625 58.210938 11.566406 C 58.210938 13.992188 59.046875 16.039062 60.738281 17.730469 C 62.40625 19.398438 64.476562 20.257812 66.902344 20.257812 C 69.328125 20.257812 71.375 19.425781 73.066406 17.730469 C 74.734375 16.039062 75.59375 13.992188 75.59375 11.566406 C 75.59375 9.140625 74.761719 7.09375 73.066406 5.453125 C 71.375 3.808594 69.328125 3 66.925781 3 L 66.875 3 Z M 66.878906 3 "/>
<path fill-rule="evenodd" fill="#0C2122" fill-opacity="1" d="M 59.730469 29.152344 L 74.308594 29.152344 L 74.308594 83.246094 L 59.730469 83.246094 Z M 59.730469 29.152344 "/>
<path fill-rule="evenodd" fill="#0C2122" fill-opacity="1" d="M 115.566406 27.535156 C 111.925781 27.535156 108.492188 28.320312 105.382812 29.835938 C 102.933594 31.074219 100.859375 32.664062 99.269531 34.636719 L 98.410156 29.128906 L 84.917969 29.128906 L 84.917969 83.222656 L 99.496094 83.222656 L 99.496094 54.140625 C 99.496094 50.125 100.582031 46.863281 102.707031 44.488281 C 104.828125 42.085938 107.710938 40.949219 111.574219 40.949219 C 114.785156 40.949219 117.207031 41.910156 119.054688 43.929688 C 120.898438 45.949219 121.808594 49.058594 121.808594 53.226562 L 121.808594 83.242188 L 136.386719 83.242188 L 136.386719 50.117188 C 136.386719 43.21875 134.617188 37.6875 131.132812 33.667969 C 127.621094 29.601562 122.390625 27.550781 115.59375 27.550781 L 115.570312 27.527344 Z M 115.566406 27.535156 "/>
<path fill-rule="evenodd" fill="#0C2122" fill-opacity="1" d="M 190.8125 3.960938 L 130.148438 3.960938 L 130.148438 18.109375 L 152.863281 18.109375 L 152.863281 83.222656 L 168.074219 83.222656 L 168.074219 18.109375 L 190.8125 18.109375 Z M 190.8125 3.960938 "/>
<path fill-rule="evenodd" fill="#0C2122" fill-opacity="1" d="M 215.394531 28.394531 C 214.433594 28.316406 213.523438 28.292969 212.566406 28.292969 C 208.195312 28.292969 204.605469 29.457031 201.851562 31.78125 C 200.691406 32.742188 199.703125 33.851562 198.894531 35.066406 L 198.339844 29.253906 L 184.570312 29.253906 L 184.570312 83.25 L 199.148438 83.25 L 199.148438 56.949219 C 199.148438 52.097656 200.410156 48.460938 202.9375 46.136719 C 205.464844 43.789062 209.027344 42.597656 213.550781 42.597656 L 219.132812 42.597656 L 219.132812 29.15625 L 218.527344 29.003906 C 217.414062 28.699219 216.355469 28.523438 215.394531 28.449219 Z M 215.394531 28.394531 "/>
<path fill-rule="evenodd" fill="#0C2122" fill-opacity="1" d="M 314.644531 51.664062 L 305.171875 49.441406 C 301.027344 48.480469 299.007812 46.789062 299.007812 44.289062 C 299.007812 42.621094 299.613281 41.332031 300.828125 40.347656 C 302.089844 39.335938 303.910156 38.832031 306.261719 38.832031 C 308.609375 38.832031 310.40625 39.414062 311.667969 40.574219 C 312.929688 41.738281 313.539062 43.304688 313.539062 45.351562 L 313.539062 46.160156 L 327.484375 46.160156 L 327.484375 45.351562 C 327.410156 41.8125 326.472656 38.683594 324.753906 36.003906 C 323.011719 33.351562 320.558594 31.253906 317.476562 29.761719 C 314.417969 28.296875 310.832031 27.5625 306.839844 27.5625 C 302.847656 27.5625 299.007812 28.246094 295.796875 29.582031 C 292.5625 30.945312 289.960938 32.945312 288.066406 35.546875 C 286.171875 38.148438 285.183594 41.28125 285.183594 44.84375 C 285.183594 49.238281 286.421875 52.703125 288.847656 55.226562 C 291.246094 57.703125 294.9375 59.496094 299.8125 60.609375 L 309.289062 62.832031 C 311.4375 63.285156 312.902344 63.945312 313.632812 64.804688 C 314.367188 65.640625 314.71875 66.597656 314.71875 67.6875 C 314.71875 69.328125 314.0625 70.59375 312.671875 71.601562 C 311.234375 72.636719 309.007812 73.167969 306.078125 73.167969 C 303.375 73.167969 301.253906 72.535156 299.785156 71.324219 C 298.34375 70.136719 297.613281 68.570312 297.535156 66.5 L 297.535156 65.71875 L 283.613281 65.71875 L 283.613281 66.527344 C 283.613281 71.933594 285.660156 76.355469 289.703125 79.691406 C 293.695312 83 299.101562 84.667969 305.773438 84.667969 C 310.167969 84.667969 314.160156 83.960938 317.574219 82.519531 C 321.035156 81.105469 323.738281 79.007812 325.683594 76.304688 C 327.605469 73.574219 328.589844 70.339844 328.589844 66.652344 C 328.589844 62.40625 327.375 59.070312 325 56.722656 C 322.675781 54.421875 319.1875 52.753906 314.664062 51.746094 L 314.664062 51.695312 L 314.640625 51.671875 Z M 314.644531 51.664062 "/>
<path fill-rule="evenodd" fill="#0C2122" fill-opacity="1" d="M 354.894531 29.152344 L 354.894531 12.777344 L 340.316406 12.777344 L 340.316406 29.148438 L 330.234375 29.148438 L 330.234375 41.605469 L 340.316406 41.605469 L 340.316406 83.246094 L 354.894531 83.246094 L 354.894531 41.605469 L 365 41.605469 L 365 29.148438 L 354.894531 29.148438 Z M 354.894531 29.152344 "/>
</svg>
